<?xml version="1.0" standalone="no"?>
<!DOCTYPE svg PUBLIC "-//W3C//DTD SVG 20010904//EN"
 "http://www.w3.org/TR/2001/REC-SVG-20010904/DTD/svg10.dtd">
<svg version="1.0" xmlns="http://www.w3.org/2000/svg"
 width="623.000000pt" height="226.000000pt" viewBox="0 0 623.000000 226.000000"
 preserveAspectRatio="xMidYMid meet">

<g transform="translate(0.000000,226.000000) scale(0.100000,-0.100000)"
fill="#000000" stroke="none">
<path d="M1850 1817 c-85 -29 -162 -86 -216 -160 -24 -33 -44 -62 -44 -66 0
-4 25 -25 56 -46 30 -21 84 -69 119 -107 l63 -68 31 39 c17 22 37 54 43 72 10
30 9 34 -21 61 l-32 29 42 18 42 19 -58 33 c-63 36 -63 38 20 55 36 8 41 13
54 52 15 50 8 92 -17 92 -9 0 -46 -11 -82 -23z"/>
<path d="M495 1197 c-50 -52 -75 -125 -75 -216 1 -253 223 -235 271 23 23 124
-33 236 -117 236 -31 0 -44 -7 -79 -43z"/>
<path d="M982 1194 c-93 -47 -137 -128 -130 -244 13 -233 292 -311 413 -116
27 45 30 57 30 136 0 79 -3 91 -30 136 -39 63 -104 103 -176 110 -45 5 -63 1
-107 -22z"/>
</g>
</svg>
