<?xml version="1.0" encoding="utf-8"?>
<!-- Generator: Adobe Illustrator 28.0.0, SVG Export Plug-In . SVG Version: 6.00 Build 0)  -->
<svg version="1.1" id="Слой_1" xmlns="http://www.w3.org/2000/svg" xmlns:xlink="http://www.w3.org/1999/xlink" x="0px" y="0px"
	 viewBox="0 0 222 82" style="enable-background:new 0 0 222 82;" xml:space="preserve">
<style type="text/css">
	.st0{fill:#FFFFFF;}
</style>
<path class="st0" d="M86.4,30.6h15V34H90.4v5.2h10.1v3.3H90.4v5.3h10.9v3.4h-15V30.6z M104.7,48.1v-3h4v1.7l1,1h6.1l1-1v-3.4l-1-1
	H108l-3.2-3.2v-5.5l3.2-3.2h9.3l3.2,3.2v3h-4V35l-1-1h-5.9l-1,1v3l1,1h7.8l3.2,3.2v5.8l-3.3,3.3h-9.6L104.7,48.1z M124.9,30.6h13
	l3.2,3.2v7.2l-3.2,3.2h-8.9v7h-4V30.6z M136,40.9l1-1V35l-1-1h-7.1v6.9H136z M144.6,47.9V34l3.4-3.4h10.6L162,34v13.9l-3.4,3.4H148
	L144.6,47.9z M156.5,47.9l1.5-1.5V35.6l-1.5-1.5h-6.4l-1.5,1.5v10.8l1.5,1.5H156.5z M182.7,44.5v6.9h-4v-5.9l-1.8-2h-6.4v7.9h-4
	V30.6h13l3.2,3.2v6.3l-2,2L182.7,44.5z M170.5,40.1h7.1l1-1v-4l-1-1h-7.1V40.1z M191.6,34h-6.2v-3.4h16.4V34h-6.2v17.3h-4V34z
	 M203.8,48.1v-3h4v1.7l1,1h6.1l1-1v-3.4l-1-1h-7.8l-3.2-3.2v-5.5l3.2-3.2h9.3l3.2,3.2v3h-4V35l-1-1h-5.9l-1,1v3l1,1h7.8l3.2,3.2v5.8
	l-3.3,3.3H207L203.8,48.1z"/>
<image style="display:none;overflow:visible;" width="237" height="186" xlink:href="D015A09B.jpg"  transform="matrix(0.3963 0 0 0.4266 0 0.4224)">
</image>
<rect x="8.6" y="45.2" class="st0" width="14.9" height="2.7"/>
<rect x="8.1" y="37.9" transform="matrix(0.8317 0.5552 -0.5552 0.8317 24.4191 -2.049)" class="st0" width="14.9" height="2.7"/>
<rect x="7.2" y="52.8" transform="matrix(0.8087 -0.5883 0.5883 0.8087 -29.0079 18.9941)" class="st0" width="14.9" height="2.7"/>
<rect x="61.7" y="44.9" transform="matrix(0.9968 -8.026101e-02 8.026101e-02 0.9968 -3.4843 5.7001)" class="st0" width="14.9" height="2.7"/>
<rect x="57.3" y="59.7" transform="matrix(0.7412 0.6713 -0.6713 0.7412 57.7164 -27.7095)" class="st0" width="14.9" height="2.7"/>
<rect x="59.5" y="51.6" transform="matrix(0.866 0.5 -0.5 0.866 35.4185 -26.3965)" class="st0" width="14.9" height="2.7"/>
<path class="st0" d="M42.8,65.1c0,0,30.8,3.3,24.3-29c0,0-6.5-25.3-41.5-14.3c0,0-21.7,20.8-5.9,37.4l2.9,8.8l2.5-4.9
	c0,0,10.2,1.8,12.1,2.5l2.2,7.8L42.8,65.1z"/>
<path class="st0" d="M45.3,4.9c0,0,2.2,6.5-0.4,14.3s-19.2,2.7-19.2,2.7L45.3,4.9z"/>
<path class="st0" d="M51.6,20.6c0,0,8.6-11.4,21.9-14.7c0,0,2.2,16.1-7.8,34.2"/>
<path d="M57.3,23.3c0,0,6.3,3.9,8,7.4c0,0,3.7-3.1,2.9-5.1l-1.9-1.7l2.9-1.3l-4.3-2.4l4.3-0.8c0,0,1.3-1.9,0.6-4.7
	C69.8,14.6,62.2,14.6,57.3,23.3z"/>
<ellipse cx="39.8" cy="44.4" rx="7.8" ry="8.5"/>
<ellipse transform="matrix(0.1715 -0.9852 0.9852 0.1715 -23.8385 57.0163)" cx="22" cy="42.7" rx="7.7" ry="4.7"/>
</svg>
